HIERARCHY
ROOT hip
{
  OFFSET 0 0 0
  CHANNELS 6 Xposition Yposition Zposition Zrotation Yrotation Xrotation
  JOINT abdomen
  {
    OFFSET 0 20.6881 -0.73152
    CHANNELS 3 Zrotation Xrotation Yrotation
    JOINT chest
    {
      OFFSET 0 11.7043 -0.48768
      CHANNELS 3 Zrotation Xrotation Yrotation
      JOINT neck
      {
        OFFSET 0 22.1894 -2.19456
        CHANNELS 3 Zrotation Xrotation Yrotation
        JOINT head
        {
          OFFSET -0.24384 7.07133 1.2192
          CHANNELS 3 Zrotation Xrotation Yrotation
          JOINT leftEye
          {
            OFFSET 4.14528 8.04674 8.04672
            CHANNELS 3 Zrotation Xrotation Yrotation
            End Site
            {
              OFFSET 1 0 0
            }
          }
          JOINT rightEye
          {
            OFFSET -3.6576 8.04674 8.04672
            CHANNELS 3 Zrotation Xrotation Yrotation
            End Site
            {
              OFFSET 1 0 0
            }
          }
        }
      }
      JOINT rCollar
      {
        OFFSET -2.68224 19.2634 -4.8768
        CHANNELS 3 Zrotation Xrotation Yrotation
        JOINT rShldr
        {
          OFFSET -8.77824 -1.95073 1.46304
          CHANNELS 3 Zrotation Xrotation Yrotation
          JOINT rForeArm
          {
            OFFSET -28.1742 -1.7115 0.48768
            CHANNELS 3 Zrotation Xrotation Yrotation
            JOINT rHand
            {
              OFFSET -22.5879 0.773209 7.07136
              CHANNELS 3 Zrotation Xrotation Yrotation
              JOINT rThumb1
              {
                OFFSET -1.2192 -0.487915 3.41376
                CHANNELS 3 Zrotation Xrotation Yrotation
                JOINT rThumb2
                {
                  OFFSET -3.37035 -0.52449 3.41376
                  CHANNELS 3 Zrotation Xrotation Yrotation
                  End Site
                  {
                    OFFSET -1.78271 -1.18214 1.43049
                  }
                }
              }
              JOINT rIndex1
              {
                OFFSET -7.75947 0.938293 5.60832
                CHANNELS 3 Zrotation Xrotation Yrotation
                JOINT rIndex2
                {
                  OFFSET -2.54057 -0.884171 1.56538
                  CHANNELS 3 Zrotation Xrotation Yrotation
                  End Site
                  {
                    OFFSET -1.62519 -0.234802 1.16502
                  }
                }
              }
              JOINT rMid1
              {
                OFFSET -8.24714 1.18213 3.41376
                CHANNELS 3 Zrotation Xrotation Yrotation
                JOINT rMid2
                {
                  OFFSET -3.10165 -0.590103 1.0647
                  CHANNELS 3 Zrotation Xrotation Yrotation
                  End Site
                  {
                    OFFSET -2.48547 -0.328903 0.83742
                  }
                }
              }
              JOINT rRing1
              {
                OFFSET -8.82822 0.546677 1.51678
                CHANNELS 3 Zrotation Xrotation Yrotation
                JOINT rRing2
                {
                  OFFSET -2.60934 -0.819778 -0.0198488
                  CHANNELS 3 Zrotation Xrotation Yrotation
                  End Site
                  {
                    OFFSET -2.33842 -0.294052 0.168128
                  }
                }
              }
              JOINT rPinky1
              {
                OFFSET -8.27202 -0.0477905 -0.4584
                CHANNELS 3 Zrotation Xrotation Yrotation
                JOINT rPinky2
                {
                  OFFSET -1.82734 -0.647385 -0.700984
                  CHANNELS 3 Zrotation Xrotation Yrotation
                  End Site
                  {
                    OFFSET -1.69225 -0.51767 -0.607171
                  }
                }
              }
            }
          }
        }
      }
      JOINT lCollar
      {
        OFFSET 2.68224 19.2634 -4.8768
        CHANNELS 3 Zrotation Xrotation Yrotation
        JOINT lShldr
        {
          OFFSET 8.77824 -1.95073 1.46304
          CHANNELS 3 Zrotation Xrotation Yrotation
          JOINT lForeArm
          {
            OFFSET 28.1742 -1.7115 0.48768
            CHANNELS 3 Zrotation Xrotation Yrotation
            JOINT lHand
            {
              OFFSET 22.5879 0.773209 7.07136
              CHANNELS 3 Zrotation Xrotation Yrotation
              JOINT lThumb1
              {
                OFFSET 1.2192 -0.487915 3.41376
                CHANNELS 3 Zrotation Xrotation Yrotation
                JOINT lThumb2
                {
                  OFFSET 3.37035 -0.52449 3.41376
                  CHANNELS 3 Zrotation Xrotation Yrotation
                  End Site
                  {
                    OFFSET 1.78271 -1.18214 1.43049
                  }
                }
              }
              JOINT lIndex1
              {
                OFFSET 7.75947 0.938293 5.60832
                CHANNELS 3 Zrotation Xrotation Yrotation
                JOINT lIndex2
                {
                  OFFSET 2.54057 -0.884171 1.56538
                  CHANNELS 3 Zrotation Xrotation Yrotation
                  End Site
                  {
                    OFFSET 1.62519 -0.234802 1.16502
                  }
                }
              }
              JOINT lMid1
              {
                OFFSET 8.24714 1.18213 3.41376
                CHANNELS 3 Zrotation Xrotation Yrotation
                JOINT lMid2
                {
                  OFFSET 3.10165 -0.590103 1.0647
                  CHANNELS 3 Zrotation Xrotation Yrotation
                  End Site
                  {
                    OFFSET 2.48547 -0.328903 0.83742
                  }
                }
              }
              JOINT lRing1
              {
                OFFSET 8.82822 0.546677 1.51678
                CHANNELS 3 Zrotation Xrotation Yrotation
                JOINT lRing2
                {
                  OFFSET 2.60934 -0.819778 -0.0198488
                  CHANNELS 3 Zrotation Xrotation Yrotation
                  End Site
                  {
                    OFFSET 2.33842 -0.294052 0.168128
                  }
                }
              }
              JOINT lPinky1
              {
                OFFSET 8.27202 -0.0477905 -0.4584
                CHANNELS 3 Zrotation Xrotation Yrotation
                JOINT lPinky2
                {
                  OFFSET 1.82734 -0.647385 -0.700984
                  CHANNELS 3 Zrotation Xrotation Yrotation
                  End Site
                  {
                    OFFSET 1.69225 -0.51767 -0.607171
                  }
                }
              }
            }
          }
        }
      }
    }
  }
  JOINT rButtock
  {
    OFFSET -8.77824 4.35084 1.2192
    CHANNELS 3 Zrotation Xrotation Yrotation
    JOINT rThigh
    {
      OFFSET 0 -1.70687 -2.19456
      CHANNELS 3 Zrotation Xrotation Yrotation
      JOINT rShin
      {
        OFFSET 0 -36.8199 0.73152
        CHANNELS 3 Zrotation Xrotation Yrotation
        JOINT rFoot
        {
          OFFSET 0.73152 -45.1104 -5.12064
          CHANNELS 3 Zrotation Xrotation Yrotation
          End Site
          {
            OFFSET -1.1221 -3.69964 12.103
          }
        }
      }
    }
  }
  JOINT lButtock
  {
    OFFSET 8.77824 4.35084 1.2192
    CHANNELS 3 Zrotation Xrotation Yrotation
    JOINT lThigh
    {
      OFFSET 0 -1.70687 -2.19456
      CHANNELS 3 Zrotation Xrotation Yrotation
      JOINT lShin
      {
        OFFSET 0 -36.8199 0.73152
        CHANNELS 3 Zrotation Xrotation Yrotation
        JOINT lFoot
        {
          OFFSET -0.73152 -45.1104 -5.12064
          CHANNELS 3 Zrotation Xrotation Yrotation
          End Site
          {
            OFFSET 1.1221 -3.69964 12.103
          }
        }
      }
    }
  }
}
MOTION
Frames:	5
Frame Time:	0.03333
0.0 0.0 0.0 0.0 0.0 0.0 0.0 0.0 0.0 0.0 0.0 0.0 0.0 0.0 0.0 0.0 0.0 0.0 0.0 0.0 0.0 0.0 0.0 0.0 0.0 0.0 0.0 0.0 0.0 0.0 0.0 0.0 0.0 0.0 0.0 0.0 0.0 0.0 0.0 0.0 0.0 0.0 0.0 0.0 0.0 0.0 0.0 0.0 0.0 0.0 0.0 0.0 0.0 0.0 0.0 0.0 0.0 0.0 0.0 0.0 0.0 0.0 0.0 0.0 0.0 0.0 0.0 0.0 0.0 0.0 0.0 0.0 0.0 0.0 0.0 0.0 0.0 0.0 0.0 0.0 0.0 0.0 0.0 0.0 0.0 0.0 0.0 0.0 0.0 0.0 0.0 0.0 0.0 0.0 0.0 0.0 0.0 0.0 0.0 0.0 0.0 0.0 0.0 0.0 0.0 0.0 0.0 0.0 0.0 0.0 0.0 0.0 0.0 0.0 0.0 0.0 0.0 0.0 0.0 0.0 0.0 0.0 0.0 0.0 0.0 0.0 0.0 0.0 0.0 0.0 0.0 0.0
0.12789999999999999 64.0527 0.06409999999999999 -0.563869 -57.973605 -0.415854 3.833802 0.629617 -83.863422 -6.929952 5.232328 32.479806 -10.505925 -9.064766 -85.464105 -17.768806 51.573097 -151.590506 100.38391 -11.175227 13.390484 4.657196 2.646187 59.191526 59.594991 28.427899 19.374219 17.803893 3.636143 4.638145 12.194051 -41.632242 152.749513 -11.03337 39.140594 -48.787386 15.96736 29.745062 55.596055 -28.832961 -9.124407 -130.914275 146.51836 15.247992 -109.622214 168.228949 -5.287833 -69.180227 152.376146 13.26291 -98.053321 -168.294375 -40.747897 139.643705 -126.554335 48.560813 -101.207447 39.911186 20.58472 -1.720441 146.043225 8.823159 -50.568807 11.382898 62.167586 -30.456602 -52.83077 44.641337 -29.396547 -14.248015 -14.853523 -2.83442 170.676075 79.7081 24.967508 -171.184236 -5.391083 -66.506083 -10.889171 -17.976092 -55.357308 154.404724 -67.630034 -108.250129 118.017094 -10.478266 -49.580871 -177.333089 21.825222 -100.49343 -60.53511 54.603244 -24.285611 -125.918326 -77.155047 94.08496 66.608602 45.24651 108.476375 118.374134 -47.382559 -142.34726 -40.587477 22.193799 56.254101 -8.085826 10.776526 -18.908823 -30.33071 -27.667336 -36.732901 11.288542 37.6787 -164.105979 -4.314538 4.723758 -148.133151 -74.012523 -13.994815 108.498926 -25.209654 -43.729551 -37.313791 -3.029757 49.302582 -147.460657 5.031601 -5.315012 37.534412 74.723189 22.560694 -96.930558
1.6017 59.7116 1.8528 -173.13729 -40.871078 -176.991338 3.904067 12.324652 -26.371139 3.081174 -12.91526 41.036215 8.336267 12.855823 -3.52931 -7.889 -22.690541 -11.967947 54.385421 18.22928 34.684315 -25.140322 1.099666 -4.928796 -4.44469 20.625521 -2.16894 81.549829 -34.237318 25.808264 29.801407 43.065684 39.55947 -13.903313 33.617443 -1.807896 -152.350902 12.368782 97.581242 -135.396502 3.307277 99.571294 175.138939 -54.459069 114.359168 -1.789565 31.929429 -14.822305 2.411871 17.640788 -5.113752 -167.633881 22.328878 92.448458 -92.134186 56.020701 93.638725 21.86332 -20.772438 2.34066 114.419723 53.521643 -61.314532 23.673267 55.081992 -91.434959 -6.463962 -23.159162 -8.402957 98.693661 -42.528994 164.071104 -42.103078 7.430579 67.898451 169.948311 35.315794 -136.729866 171.413436 2.324771 -75.638171 151.210599 -16.37252 -61.139835 17.415127 11.928799 -4.042172 156.153427 -38.384552 -111.33491 2.131349 -24.115316 3.448895 -11.427101 -5.638776 -19.640739 1.657602 -51.350485 4.775844 158.442632 9.626316 -166.30222 -9.318147 -5.997481 -41.979726 -0.347061 30.858846 15.347059 9.063291 0.555652 10.258341 -27.802076 -18.967111 102.838185 53.286627 -31.147966 141.998053 24.636872 41.137898 78.418858 -38.440557 24.491807 -44.022398 93.102554 -4.519633 61.472973 -21.076953 66.001076 -73.568989 -15.126586 76.305571 99.630361
2.8523 65.359 3.2103 -172.299082 -36.791208 -174.951769 0.690152 6.546538 177.662837 -4.313162 5.517634 -169.312417 -13.091724 23.716229 -72.836108 38.247784 -2.317971 68.461749 40.395849 3.128072 8.48935 -2.562881 0.038998 -1.74324 8.400898 -56.799409 0.845956 62.89654 24.970702 -40.902335 1.79741 34.296041 55.081004 -4.540187 23.911577 -6.564987 -173.483661 10.196377 96.4586 161.605112 -85.911375 171.951842 -150.333382 -32.02096 126.629894 76.503715 -79.82062 9.58643 0.876975 37.635399 3.283632 -56.610945 -18.106687 -10.065538 -156.809763 -72.401265 -152.488519 22.217629 36.231918 -24.455435 -26.853515 -51.70454 -17.580364 20.328411 -51.209712 22.596096 -4.153297 -8.000371 0.324368 106.388852 -15.746471 177.243293 -10.53082 -2.128175 72.503886 179.727855 0.639907 -143.261877 -3.587606 3.992803 5.992228 -2.668169 -32.384671 13.350456 23.55529 43.493079 -8.68942 18.008852 -14.522483 -11.034792 -2.652063 -0.172691 -8.901234 167.144352 74.071363 -164.777542 21.767385 28.161647 -0.156323 88.732794 50.595892 -107.513272 15.273577 65.621569 -80.0896 -68.720102 33.523422 34.509545 -113.135283 58.373775 -64.877335 139.88068 57.760814 -134.706287 -54.298282 -35.19886 -124.499155 -139.571234 -14.098488 158.69861 -50.326636 27.40449 -39.667035 110.568363 -10.211475 50.921544 -33.423114 67.864232 5.555716 9.041701 -10.145644 42.722905
3.5802 64.27159999999999 3.8711 -173.616143 -39.403459 -173.139403 0.954261 12.236972 2.700331 2.567318 -11.134467 1.759476 -14.80601 18.007624 -57.319407 35.071234 -8.849947 54.176929 23.315306 -1.486918 -7.197801 8.342567 -1.124732 -15.330126 150.764608 -77.352653 129.77467 81.043636 46.889266 -86.308705 -173.158931 -25.275144 89.774679 154.340906 -30.003075 131.522272 -7.723283 -20.949339 -6.900899 -41.712067 -62.814231 -163.896286 -19.185773 35.913924 19.730755 -171.71607 10.697678 121.539681 -141.884437 -9.312404 152.048177 -110.833027 19.300898 176.011987 -74.9789 52.055561 70.376718 -134.761358 -31.61869 167.673209 -151.284059 23.440474 -179.364691 -115.780397 -59.050847 -117.753974 39.726153 67.679814 -47.631756 98.710704 15.201224 -114.196891 91.445618 -27.557697 122.343143 -50.193596 -73.60974 -39.895863 152.906955 -1.011554 -107.616496 -1.092898 -17.089637 -6.0332 142.8283 -67.812905 -153.496334 -156.865222 -72.08951 -53.294243 10.610418 29.266965 -11.514489 85.962531 72.49696 -100.081309 -26.008449 80.810523 26.349383 -150.088337 -60.539592 -150.09092 128.847377 34.150656 162.677496 135.733278 52.65197 159.752729 106.743659 52.25433 48.044128 -134.392921 42.494544 53.914539 59.334772 16.421739 -126.057852 98.495729 2.854954 0.265826 -28.352353 4.152066 -17.144283 73.265396 -45.044481 146.431463 85.931376 -2.480239 118.604336 105.992394 8.823813 169.903026
